<svg width="32" height="32" viewBox="0 0 32 32" class="svg-inline--fa fa-w-18" role="img" fill="currentColor" xmlns="http://www.w3.org/2000/svg">
<path d="M21.55 19C21.1358 19 20.8 18.6642 20.8 18.25V14.95C20.8 14.5358 21.1358 14.2 21.55 14.2H24.85C25.2642 14.2 25.6 13.8642 25.6 13.45V12.6528C25.6 12.0085 26.3589 11.6641 26.8439 12.0884L31.3549 16.0356C31.6964 16.3344 31.6964 16.8656 31.3549 17.1644L26.8439 21.1116C26.3589 21.5359 25.6 21.1915 25.6 20.5472V19.75C25.6 19.3358 25.2642 19 24.85 19H21.55ZM18.8437 8.70026C19.0651 8.83684 19.2 9.07844 19.2 9.33864V10.25C19.2 10.6642 18.8642 11 18.45 11H0.75C0.335786 11 0 10.6642 0 10.25V9.33864C0 9.07844 0.134861 8.83684 0.356333 8.70026L9.20633 3.24276C9.44768 3.09393 9.75232 3.09393 9.99367 3.24276L18.8437 8.70026ZM8 13.35C8 12.9358 8.33579 12.6 8.75 12.6H10.45C10.8642 12.6 11.2 12.9358 11.2 13.35V19.85C11.2 20.2642 10.8642 20.6 10.45 20.6H8.75C8.33579 20.6 8 20.2642 8 19.85V13.35ZM1.6 13.35C1.6 12.9358 1.93579 12.6 2.35 12.6H4.05C4.46421 12.6 4.8 12.9358 4.8 13.35V19.85C4.8 20.2642 4.46421 20.6 4.05 20.6H2.35C1.93579 20.6 1.6 20.2642 1.6 19.85V13.35ZM16.85 12.6C17.2642 12.6 17.6 12.9358 17.6 13.35V16.266C17.6 16.4786 17.5098 16.6812 17.3517 16.8235L15.6517 18.3535C15.1691 18.7878 14.4 18.4453 14.4 17.796V13.35C14.4 12.9358 14.7358 12.6 15.15 12.6H16.85ZM10.4813 22.2C10.7789 22.2 10.9136 22.572 10.685 22.7625V22.7625C10.5352 22.8874 10.5319 23.1164 10.6782 23.2454L11.6326 24.0876C12.1508 24.5448 11.8274 25.4 11.1364 25.4H0.75C0.335787 25.4 0 25.0642 0 24.65V22.95C0 22.5358 0.335786 22.2 0.75 22.2H10.4813ZM23.25 20.6C23.6642 20.6 24 20.9358 24 21.35V24.65C24 25.0642 23.6642 25.4 23.25 25.4H19.95C19.5358 25.4 19.2 25.7358 19.2 26.15V26.9472C19.2 27.5915 18.4411 27.9359 17.9561 27.5116L13.4451 23.5644C13.1036 23.2656 13.1036 22.7344 13.4451 22.4356L17.9561 18.4884C18.4411 18.0641 19.2 18.4085 19.2 19.0528V19.85C19.2 20.2642 19.5358 20.6 19.95 20.6H23.25Z" />
</svg>
