<svg width="12" height="12" viewBox="0 0 12 12" fill="none" xmlns="http://www.w3.org/2000/svg">
<path d="M5.53694 1.30968C5.67221 1.21368 5.83397 1.16211 5.99984 1.16211C6.16571 1.16211 6.32748 1.21368 6.46274 1.30968L9.97394 3.80088C10.4101 4.11048 10.1917 4.79808 9.65714 4.79928H2.34434C1.80794 4.79928 1.58834 4.11108 2.02634 3.80088L5.53694 1.30968ZM2.70014 5.39988V7.79988H3.90014V5.39988H2.70014ZM1.80014 9.69948C1.80014 8.98128 2.38214 8.39928 3.09974 8.39928H8.89994C9.24473 8.39944 9.57534 8.53647 9.81914 8.78028C10.0629 9.02408 10.2 9.35469 10.2001 9.69948V9.89928C10.2001 9.97885 10.1685 10.0552 10.1123 10.1114C10.056 10.1677 9.97971 10.1993 9.90014 10.1993H2.10014C2.02058 10.1993 1.94427 10.1677 1.88801 10.1114C1.83175 10.0552 1.80014 9.97885 1.80014 9.89928V9.69948ZM9.30014 5.39928V7.79928H8.10014V5.39988H9.30014V5.39928ZM7.50014 5.39928V7.79928H6.30014V5.39988H7.50014V5.39928ZM5.70014 5.39928V7.79928H4.50014V5.39988H5.70014V5.39928Z" fill="black"/>
</svg>
