<svg width="32" height="32" viewBox="0 0 32 32" fill="currentColor" xmlns="http://www.w3.org/2000/svg">
<path d="M16 20C17.0609 20 18.0783 19.5786 18.8284 18.8284C19.5786 18.0783 20 17.0609 20 16C20 14.9391 19.5786 13.9217 18.8284 13.1716C18.0783 12.4214 17.0609 12 16 12C14.9391 12 13.9217 12.4214 13.1716 13.1716C12.4214 13.9217 12 14.9391 12 16C12 17.0609 12.4214 18.0783 13.1716 18.8284C13.9217 19.5786 14.9391 20 16 20V20Z" />
<path d="M0 8C0 7.46957 0.210714 6.96086 0.585786 6.58579C0.960859 6.21071 1.46957 6 2 6H30C30.5304 6 31.0391 6.21071 31.4142 6.58579C31.7893 6.96086 32 7.46957 32 8V24C32 24.5304 31.7893 25.0391 31.4142 25.4142C31.0391 25.7893 30.5304 26 30 26H2C1.46957 26 0.960859 25.7893 0.585786 25.4142C0.210714 25.0391 0 24.5304 0 24V8ZM6 8C6 9.06087 5.57857 10.0783 4.82843 10.8284C4.07828 11.5786 3.06087 12 2 12V20C3.06087 20 4.07828 20.4214 4.82843 21.1716C5.57857 21.9217 6 22.9391 6 24H26C26 22.9391 26.4214 21.9217 27.1716 21.1716C27.9217 20.4214 28.9391 20 30 20V12C28.9391 12 27.9217 11.5786 27.1716 10.8284C26.4214 10.0783 26 9.06087 26 8H6Z" />
</svg>
