<svg aria-hidden="true" focusable="false" data-prefix="far" data-icon="purchase-order" class="svg-inline--fa fa-w-18" role="img" fill="currentColor" viewBox="0 0 32 32" xmlns="http://www.w3.org/2000/svg">
<path d="M9.33333 7C8.97971 7 8.64057 7.14048 8.39052 7.39052C8.14048 7.64057 8 7.97971 8 8.33333C8 8.68696 8.14048 9.02609 8.39052 9.27614C8.64057 9.52619 8.97971 9.66667 9.33333 9.66667H22.6667C23.0203 9.66667 23.3594 9.52619 23.6095 9.27614C23.8595 9.02609 24 8.68696 24 8.33333C24 7.97971 23.8595 7.64057 23.6095 7.39052C23.3594 7.14048 23.0203 7 22.6667 7H9.33333ZM8 13.6667C8 13.313 8.14048 12.9739 8.39052 12.7239C8.64057 12.4738 8.97971 12.3333 9.33333 12.3333H14.6667C15.0203 12.3333 15.3594 12.4738 15.6095 12.7239C15.8595 12.9739 16 13.313 16 13.6667C16 14.0203 15.8595 14.3594 15.6095 14.6095C15.3594 14.8595 15.0203 15 14.6667 15H9.33333C8.97971 15 8.64057 14.8595 8.39052 14.6095C8.14048 14.3594 8 14.0203 8 13.6667Z"/>
<path fill-rule="evenodd" clip-rule="evenodd" d="M2.66699 5.33301C2.66699 4.27214 3.08842 3.25473 3.83857 2.50458C4.58871 1.75444 5.60613 1.33301 6.66699 1.33301H25.3337C26.3945 1.33301 27.4119 1.75444 28.1621 2.50458C28.9122 3.25473 29.3337 4.27214 29.3337 5.33301V26.6663C29.3337 27.7272 28.9122 28.7446 28.1621 29.4948C27.4119 30.2449 26.3945 30.6663 25.3337 30.6663H6.66699C5.60613 30.6663 4.58871 30.2449 3.83857 29.4948C3.08842 28.7446 2.66699 27.7272 2.66699 26.6663V5.33301ZM6.66699 3.99967H25.3337C25.6873 3.99967 26.0264 4.14015 26.2765 4.3902C26.5265 4.64025 26.667 4.97939 26.667 5.33301V26.6663C26.667 27.02 26.5265 27.3591 26.2765 27.6092C26.0264 27.8592 25.6873 27.9997 25.3337 27.9997H6.66699C6.31337 27.9997 5.97423 27.8592 5.72418 27.6092C5.47413 27.3591 5.33366 27.02 5.33366 26.6663V5.33301C5.33366 4.97939 5.47413 4.64025 5.72418 4.3902C5.97423 4.14015 6.31337 3.99967 6.66699 3.99967Z"/>
<path d="M30.2916 21.1931L16.2917 21.1931C16.9 21.3391 17.2253 21.5109 17.3975 21.6728C17.556 21.8217 17.6 21.9764 17.6 22.155C17.6 22.2702 17.5595 22.4216 17.4215 22.5466C17.2825 22.6725 17.0131 22.8 16.5 22.8C16.1154 22.8 15.8477 22.731 15.6653 22.6308C15.4875 22.5333 15.3794 22.4004 15.318 22.2443C15.2134 21.9735 14.9633 21.75 14.635 21.75H14.495C13.9877 21.75 13.6251 22.2647 13.8181 22.7435L13.8181 22.7435L13.8187 22.7449C14.1184 23.4758 14.7765 23.9124 15.5 24.1113V24.25C15.5 24.8031 15.9469 25.25 16.5 25.25C17.0531 25.25 17.5 24.8031 17.5 24.25V24.1261C17.9409 24.0164 18.3481 23.8254 18.6606 23.5359C19.0266 23.1966 19.25 22.733 19.25 22.15C19.25 21.3533 18.9025 20.8062 18.401 20.4284C17.9136 20.0613 17.2849 19.8567 16.7129 19.708C16.1513 19.5621 15.8157 19.4215 15.6231 19.279C15.5305 19.2105 15.4776 19.1462 15.4466 19.0866C15.416 19.0278 15.4 18.9604 15.4 18.875C15.4 18.6897 15.4817 18.5324 15.652 18.4126C15.8293 18.2878 16.1114 18.2 16.5 18.2C16.8257 18.2 17.041 18.2622 17.1824 18.3507C17.3184 18.4358 17.4058 18.5575 17.4556 18.7221C17.5406 19.005 17.7877 19.25 18.13 19.25H18.28C18.7766 19.25 19.1416 18.759 18.965 18.2797C18.7441 17.6603 18.2515 17.1455 17.5 16.9056V16.75C17.5 16.1969 17.0531 15.75 16.5 15.75C15.9469 15.75 15.5 16.1969 15.5 16.75V16.8845C14.5542 17.1496 13.75 17.8257 13.75 18.885C13.75 19.5448 14.0284 20.0469 14.4958 20.4203C14.9515 20.7843 15.5811 21.0225 16.2916 21.1931Z" stroke-width="0.5"/>
</svg>
