<svg width="23" height="24" viewBox="0 0 23 24" fill="none" xmlns="http://www.w3.org/2000/svg">
<path d="M18.3167 2.85L18.9267 6.71L22.4367 8.5L20.6667 12L22.4467 15.5L18.9067 17.29L18.2967 21.15L14.4067 20.54L11.6367 23.3L8.85672 20.5L4.99672 21.14L4.37672 17.25L0.886719 15.47L2.66672 11.97L0.896719 8.5L4.40672 6.69L5.01672 2.86L8.88672 3.5L11.6667 0.690002L14.4367 3.46L18.3167 2.85ZM9.16672 7C8.76889 7 8.38736 7.15804 8.10606 7.43934C7.82475 7.72065 7.66672 8.10218 7.66672 8.5C7.66672 8.89783 7.82475 9.27936 8.10606 9.56066C8.38736 9.84197 8.76889 10 9.16672 10C9.56454 10 9.94607 9.84197 10.2274 9.56066C10.5087 9.27936 10.6667 8.89783 10.6667 8.5C10.6667 8.10218 10.5087 7.72065 10.2274 7.43934C9.94607 7.15804 9.56454 7 9.16672 7ZM14.1667 14C13.7689 14 13.3874 14.158 13.1061 14.4393C12.8248 14.7206 12.6667 15.1022 12.6667 15.5C12.6667 15.8978 12.8248 16.2794 13.1061 16.5607C13.3874 16.842 13.7689 17 14.1667 17C14.5645 17 14.9461 16.842 15.2274 16.5607C15.5087 16.2794 15.6667 15.8978 15.6667 15.5C15.6667 15.1022 15.5087 14.7206 15.2274 14.4393C14.9461 14.158 14.5645 14 14.1667 14ZM8.07672 17L16.6667 8.41L15.2567 7L6.66672 15.59L8.07672 17Z" fill="#DB5D4E"/>
</svg>
