<svg width="24" height="24" viewBox="0 0 24 24" fill="none" xmlns="http://www.w3.org/2000/svg"><path fill-rule="evenodd" clip-rule="evenodd" d="M19.143 3a2.79 2.79 0 0 1 2.02.879C21.7 4.44 22 5.204 22 6v12c0 .796-.301 1.559-.837 2.121a2.79 2.79 0 0 1-2.02.879H4.857a2.79 2.79 0 0 1-2.02-.879A3.078 3.078 0 0 1 2 18V6c0-.796.301-1.559.837-2.121A2.79 2.79 0 0 1 4.857 3h14.286Zm1.428 6V6c0-.398-.15-.78-.418-1.06a1.395 1.395 0 0 0-1.01-.44H4.857c-.379 0-.742.158-1.01.44A1.539 1.539 0 0 0 3.429 6v3H20.57ZM3.43 10.5V18c0 .398.15.78.418 1.06.268.282.631.44 1.01.44h14.286c.379 0 .742-.158 1.01-.44a1.54 1.54 0 0 0 .418-1.06v-7.5H3.43Z" fill="#000"/><path d="M5.714 7.8a.837.837 0 0 0 .606-.264.923.923 0 0 0 .251-.636.923.923 0 0 0-.25-.636A.837.837 0 0 0 5.713 6a.837.837 0 0 0-.606.264.923.923 0 0 0-.25.636c0 .239.09.468.25.636.161.17.379.264.606.264Zm2.572 0a.837.837 0 0 0 .606-.264.923.923 0 0 0 .25-.636.923.923 0 0 0-.25-.636A.837.837 0 0 0 8.286 6a.837.837 0 0 0-.606.264.923.923 0 0 0-.251.636c0 .239.09.468.25.636.161.17.38.264.607.264Zm3.428-.9c0 .239-.09.468-.25.636a.837.837 0 0 1-.607.264.837.837 0 0 1-.606-.264A.923.923 0 0 1 10 6.9a.92.92 0 0 1 .251-.636.837.837 0 0 1 .606-.264c.228 0 .446.095.606.264a.92.92 0 0 1 .251.636Z" fill="#000"/><path d="m18.802 13.383-.658 2.793.658-2.793Zm0 0a.33.33 0 0 0-.055-.265.287.287 0 0 0-.234-.12h-4.18l-.135-.79a.304.304 0 0 0-.293-.258h-.658c-.165 0-.297.144-.297.312s.132.312.297.312h.409l.614 3.582m4.532-2.773-4.531 2.773m0 0a.304.304 0 0 0 .292.258h3.292m-3.584-.258 3.873.02a.314.314 0 0 1-.105.17.288.288 0 0 1-.184.068m0 0v-.05.05Zm-3.417-2.793h3.693l-.51 2.169H14.81l-.372-2.17Zm.701 4.189c.304 0 .544-.26.544-.574 0-.314-.24-.573-.544-.573-.303 0-.543.259-.543.573 0 .315.24.574.543.574Zm2.14 0c.303 0 .543-.26.543-.574 0-.314-.24-.573-.543-.573-.304 0-.544.259-.544.573 0 .315.24.574.544.574Z" fill="#000" stroke="#000" stroke-width=".1"/><rect x="4.25" y="12.25" width="3.056" height=".5" rx=".25" stroke="#000" stroke-width=".5"/><rect x="4.25" y="14.25" width="7.5" height=".5" rx=".25" stroke="#000" stroke-width=".5"/><rect x="4.25" y="16.25" width="7.5" height=".5" rx=".25" stroke="#000" stroke-width=".5"/><rect x="8.694" y="12.25" width="3.056" height=".5" rx=".25" stroke="#000" stroke-width=".5"/></svg>