<svg width="32" height="32" viewBox="0 0 32 32" class="svg-inline--fa fa-w-18" role="img" fill="currentColor" xmlns="http://www.w3.org/2000/svg">
<rect x="1" y="6" width="30" height="20" rx="3" fill="none" stroke="currentColor" stroke-width="2"/>
<path d="M6.09655 11C5.49094 11 5 11.4909 5 12.0965V12.0965C5 12.7022 5.49094 13.1931 6.09655 13.1931H14.8689C15.4745 13.1931 15.9655 12.7022 15.9655 12.0965V12.0965C15.9655 11.4909 15.4745 11 14.8689 11H6.09655ZM23.1757 11C22.8272 11 22.5448 11.2825 22.5448 11.6309V11.6309C22.5448 11.9394 22.3177 12.1952 22.0294 12.3053C21.054 12.6776 20.3517 13.6013 20.3517 14.7008C20.3517 15.5276 20.81 16.2854 21.5513 16.6538L24.5916 18.1907C24.6821 18.2364 24.7487 18.3307 24.7123 18.4253V18.4253C24.6927 18.4765 24.6625 18.5229 24.6237 18.5617C24.585 18.6005 24.5385 18.6307 24.4873 18.6503C24.4361 18.67 24.3814 18.6787 24.3267 18.6758H22.956C22.9012 18.6787 22.8465 18.67 22.7953 18.6503C22.7441 18.6307 22.6977 18.6005 22.6589 18.5617C22.6201 18.5229 22.5899 18.4765 22.5703 18.4253C22.5506 18.3741 22.5419 18.3194 22.5448 18.2646V18.2646C22.5448 17.8861 22.2379 17.5793 21.8594 17.5793H21.037C20.6585 17.5793 20.3517 17.8861 20.3517 18.2646V18.2646C20.3517 19.3645 21.0544 20.2884 22.0302 20.6612C22.3181 20.7712 22.5448 21.0267 22.5448 21.3349V21.3349C22.5448 21.6832 22.8271 21.9655 23.1753 21.9655H24.1069C24.4554 21.9655 24.7379 21.683 24.7379 21.3346V21.3346C24.7379 21.026 24.965 20.7702 25.2532 20.6602C26.2286 20.2879 26.931 19.3642 26.931 18.2646C26.931 17.4378 26.4726 16.6845 25.7313 16.3117L23.1281 14.9957C22.7703 14.8149 22.5551 14.2896 22.956 14.2896V14.2896H24.3267C24.5712 14.2896 24.7379 14.4563 24.7379 14.7008V14.7008C24.7379 15.0794 25.0447 15.3862 25.4232 15.3862H26.2456C26.6241 15.3862 26.931 15.0794 26.931 14.7008V14.7008C26.931 13.601 26.2283 12.6771 25.2524 12.3043C24.9645 12.1943 24.7379 11.9387 24.7379 11.6306V11.6306C24.7379 11.2823 24.4555 11 24.1073 11H23.1757ZM6.09655 14.2896C5.49094 14.2896 5 14.7806 5 15.3862V15.3862C5 15.9918 5.49094 16.4827 6.09655 16.4827H11.5793C12.1849 16.4827 12.6758 15.9918 12.6758 15.3862V15.3862C12.6758 14.7806 12.1849 14.2896 11.5793 14.2896H6.09655ZM7.74137 17.5793C7.07796 17.5793 6.61083 17.9565 6.3016 18.2986C5.99457 18.6418 5.76649 19.0223 5.58227 19.4303C5.37138 19.8979 5.21114 20.387 5.11267 20.8765C4.99323 21.4703 5.49094 21.9655 6.09655 21.9655V21.9655C6.70215 21.9655 7.22101 21.4708 7.39522 20.8907C7.45524 20.6909 7.52611 20.4935 7.6043 20.3207V20.3207C7.67867 20.1554 7.9274 20.1634 8.02508 20.316C8.03296 20.3283 8.04109 20.3412 8.0495 20.3546C8.2085 20.6123 8.38395 20.9205 8.59777 21.2121C8.8127 21.5027 9.07368 21.983 9.90047 21.9995C10.5518 22.0126 10.7525 21.7769 10.963 21.6234C11.1714 21.4687 11.3183 21.3229 11.4762 21.1771V21.1771C11.6208 21.0442 11.8862 21.0348 12.0641 21.1179C12.1708 21.1678 12.3135 21.2315 12.5048 21.3141C13.0587 21.5571 13.8283 21.8051 14.8705 21.9115C15.473 21.9731 15.9655 21.4745 15.9655 20.8689V20.8689C15.9655 20.2633 15.4725 19.7851 14.871 19.714C14.1932 19.6339 13.7509 19.4821 13.3952 19.3272C12.8776 19.1002 12.4828 18.6758 11.5793 18.6758C10.9192 18.6758 10.7525 18.9324 10.5507 19.087C10.4706 19.1481 10.4016 19.2109 10.3372 19.2731C10.2164 19.3898 10.0247 19.3659 9.93447 19.2241V19.2241C9.73299 18.8773 9.49157 18.5553 9.21513 18.2646C8.89713 17.9433 8.39711 17.5793 7.74137 17.5793Z"/>
</svg>
