<svg width="40" height="16" viewBox="0 0 40 16" fill="none" xmlns="http://www.w3.org/2000/svg">
<path fill-rule="evenodd" clip-rule="evenodd" d="M7.762 2.0628C7.30994 2.60324 6.58664 3.0295 5.86333 2.9686C5.77292 2.23787 6.12704 1.46147 6.54143 0.981922C6.99349 0.426261 7.78461 0.0304472 8.42503 0C8.50037 0.76118 8.20653 1.50714 7.762 2.0628ZM8.41757 3.11333C7.78035 3.07628 7.19892 3.30694 6.72928 3.49324C6.42706 3.61314 6.17113 3.71466 5.97642 3.71466C5.75792 3.71466 5.49143 3.60771 5.19222 3.48762C4.80015 3.33027 4.35191 3.15037 3.88186 3.159C2.80444 3.17423 1.80236 3.79078 1.25235 4.7727C0.122192 6.73655 0.958511 9.64425 2.051 11.2427C2.58594 12.0344 3.22637 12.9021 4.07022 12.8717C4.44146 12.8575 4.70852 12.743 4.98489 12.6245C5.30307 12.4881 5.63361 12.3464 6.14971 12.3464C6.64793 12.3464 6.96401 12.4844 7.26743 12.6169C7.55593 12.7429 7.83299 12.8639 8.24428 12.8564C9.11827 12.8412 9.66828 12.0648 10.2032 11.2732C10.7805 10.4235 11.0342 9.59433 11.0727 9.46851L11.0772 9.45396C11.0763 9.45303 11.0692 9.44973 11.0566 9.44391C10.8636 9.35465 9.38859 8.67246 9.37444 6.84311C9.36024 5.30764 10.5444 4.52968 10.7308 4.40721L10.7308 4.4072C10.7421 4.39975 10.7498 4.39473 10.7532 4.39211C9.99979 3.26557 8.82443 3.14378 8.41757 3.11333ZM14.4672 12.773V0.90625H18.8749C21.1502 0.90625 22.74 2.4895 22.74 4.80349C22.74 7.11748 21.1201 8.71596 18.8146 8.71596H16.2906V12.773H14.4672ZM16.2914 2.45898H18.3935C19.9758 2.45898 20.8799 3.31151 20.8799 4.81103C20.8799 6.31055 19.9758 7.17069 18.386 7.17069H16.2914V2.45898ZM28.7607 11.3495C28.2785 12.2782 27.2162 12.8643 26.071 12.8643C24.3757 12.8643 23.1928 11.8443 23.1928 10.3067C23.1928 8.78434 24.338 7.90899 26.4552 7.77959L28.7306 7.64257V6.98796C28.7306 6.02126 28.1052 5.49605 26.9901 5.49605C26.071 5.49605 25.4004 5.97559 25.2648 6.70632H23.6223C23.675 5.16874 25.1065 4.0498 27.0429 4.0498C29.1299 4.0498 30.4861 5.15352 30.4861 6.86617V12.7729H28.7984V11.3495H28.7607ZM26.5609 11.4556C25.5889 11.4556 24.9711 10.9837 24.9711 10.2605C24.9711 9.51459 25.5663 9.08072 26.704 9.01221L28.7308 8.88281V9.55265C28.7308 10.664 27.7965 11.4556 26.5609 11.4556ZM36.0836 13.2373C35.3528 15.3153 34.5165 16.0004 32.7383 16.0004C32.6027 16.0004 32.1507 15.9852 32.0452 15.9547V14.5313C32.1582 14.5466 32.437 14.5618 32.5801 14.5618C33.3863 14.5618 33.8384 14.2192 34.1171 13.3287L34.2829 12.8035L31.1938 4.16406H33.1L35.2473 11.1745H35.285L37.4323 4.16406H39.2857L36.0836 13.2373Z" fill="black"/>
</svg>