<svg width="48" height="32" viewBox="0 0 48 32" fill="none" xmlns="http://www.w3.org/2000/svg">
<rect width="48" height="32" rx="4" fill="white"/>
<path fill-rule="evenodd" clip-rule="evenodd" d="M28.5747 14.2945C26.3669 15.9239 23.166 16.7904 20.4096 16.7904C16.5467 16.7904 13.068 15.3624 10.4354 12.9854C10.2289 12.7985 10.4131 12.5437 10.6615 12.6882C13.5015 14.3409 17.0141 15.3363 20.6414 15.3363C23.0885 15.3363 25.7786 14.8283 28.2538 13.7784C28.6271 13.6203 28.9402 14.0244 28.5747 14.2945Z" fill="#F79C34"/>
<path fill-rule="evenodd" clip-rule="evenodd" d="M29.4936 13.2453C29.211 12.8838 27.627 13.074 26.9152 13.1593C26.6996 13.1854 26.6661 12.9969 26.8604 12.8605C28.1242 11.9727 30.1952 12.2289 30.4359 12.5264C30.6782 12.8259 30.3719 14.9024 29.188 15.8931C29.0055 16.0454 28.8322 15.9642 28.9131 15.7631C29.1799 15.0974 29.7762 13.6074 29.4936 13.2453Z" fill="#F79C34"/>
<path fill-rule="evenodd" clip-rule="evenodd" d="M26.9653 6.5894V5.727C26.966 5.59567 27.0648 5.50835 27.1839 5.50869L31.0499 5.50835C31.1734 5.50835 31.2729 5.59804 31.2729 5.72598V6.46553C31.2716 6.58974 31.167 6.75153 30.9818 7.00842L28.9791 9.86776C29.7224 9.8505 30.5087 9.96186 31.1842 10.3413C31.3365 10.4269 31.3775 10.5538 31.3893 10.678V11.5983C31.3893 11.7253 31.2506 11.8718 31.1044 11.7957C29.9147 11.1722 28.3357 11.1042 27.0198 11.8031C26.8854 11.8749 26.7449 11.73 26.7449 11.6031V10.7281C26.7449 10.5884 26.7476 10.3487 26.8888 10.1355L29.2086 6.80704L27.1887 6.8067C27.0651 6.8067 26.966 6.7187 26.9653 6.5894ZM12.8635 11.9767H11.6874C11.5753 11.9696 11.486 11.8857 11.4768 11.7781L11.4779 5.74155C11.4779 5.62106 11.5794 5.5246 11.705 5.5246L12.8002 5.52426C12.9146 5.53001 13.0067 5.61666 13.0138 5.727V6.51494H13.0361C13.3215 5.75272 13.8593 5.397 14.5839 5.397C15.3194 5.397 15.7807 5.75272 16.1101 6.51494C16.3954 5.75272 17.0432 5.397 17.7347 5.397C18.2289 5.397 18.7667 5.60041 19.096 6.05768C19.4693 6.56605 19.3928 7.30255 19.3928 7.95037L19.3915 11.7598C19.3915 11.8799 19.2903 11.9767 19.1647 11.9767H17.9902C17.8718 11.9693 17.779 11.8759 17.779 11.7601L17.7787 8.55994C17.7787 8.30609 17.8007 7.67113 17.7455 7.42981C17.6579 7.02298 17.3945 6.90858 17.0544 6.90858C16.7687 6.90858 16.4722 7.09913 16.3514 7.40375C16.2306 7.70904 16.2417 8.21674 16.2417 8.55994V11.7598C16.2417 11.8799 16.1402 11.9767 16.015 11.9767H14.8402C14.722 11.9693 14.629 11.8759 14.629 11.7601L14.6276 8.55994C14.6276 7.88674 14.7376 6.89639 13.9033 6.89639C13.0578 6.89639 13.091 7.86135 13.091 8.55994L13.0903 11.7598C13.0903 11.8799 12.9888 11.9767 12.8635 11.9767ZM34.6115 6.62934C33.7444 6.62934 33.6895 7.81024 33.6895 8.54708C33.6895 9.28391 33.6787 10.8591 34.601 10.8591C35.5122 10.8591 35.5562 9.58887 35.5562 8.81413C35.5562 8.30609 35.5338 7.69618 35.3802 7.21353C35.2485 6.79417 34.9848 6.62934 34.6115 6.62934ZM34.601 5.397C36.3465 5.397 37.2905 6.89639 37.2905 8.8016C37.2905 10.6428 36.2476 12.104 34.601 12.104C32.8881 12.104 31.9549 10.6049 31.9549 8.73797C31.9549 6.85781 32.8989 5.397 34.601 5.397ZM39.5544 11.9767H38.3823C38.2649 11.9693 38.1715 11.8759 38.1715 11.7601L38.1694 5.72158C38.1796 5.61091 38.2771 5.5246 38.3955 5.5246L39.4864 5.52426C39.5893 5.52967 39.6739 5.5994 39.6956 5.69315V6.61648H39.7176C40.0472 5.79063 40.5079 5.397 41.3202 5.397C41.8472 5.397 42.3633 5.58755 42.6927 6.10845C43 6.5911 43 7.40375 43 7.98827V11.7869C42.9871 11.8938 42.891 11.9767 42.7746 11.9767H41.5957C41.4867 11.97 41.3991 11.8897 41.3862 11.7869V8.50951C41.3862 7.84883 41.4634 6.88319 40.6507 6.88319C40.3654 6.88319 40.1017 7.07375 39.9701 7.36584C39.8052 7.73443 39.7832 8.10268 39.7832 8.50951V11.7598C39.7812 11.8799 39.6797 11.9767 39.5544 11.9767ZM25.0689 11.9618C24.9914 12.0316 24.8793 12.0363 24.7913 11.9893C24.4007 11.6647 24.3307 11.5147 24.1171 11.2054C23.4717 11.863 23.0144 12.0603 22.178 12.0603C21.188 12.0603 20.4177 11.4491 20.4177 10.2272C20.4177 9.27241 20.9352 8.62323 21.672 8.30508C22.31 8.02483 23.2012 7.97406 23.8836 7.89757V7.74492C23.8836 7.46433 23.9056 7.13399 23.7404 6.89199C23.5972 6.67537 23.3224 6.58636 23.0804 6.58636C22.6316 6.58636 22.2332 6.81617 22.1351 7.29239C22.1144 7.39833 22.0372 7.50359 21.931 7.50901L20.7907 7.38547C20.6946 7.36347 20.5876 7.2863 20.615 7.13941C20.8739 5.77574 22.0917 5.35063 23.1985 5.33912H23.2858C23.8524 5.34623 24.5761 5.50158 25.0167 5.92432C25.5891 6.4591 25.5336 7.1719 25.5336 7.94867V9.78078C25.5336 10.3321 25.7627 10.5738 25.9776 10.8706C26.0531 10.9779 26.0697 11.1048 25.9739 11.1834C25.7336 11.3848 25.3068 11.7554 25.0723 11.9645L25.0689 11.9618ZM23.8836 9.09437C23.8836 9.55265 23.8944 9.93444 23.6636 10.342C23.4764 10.6726 23.1792 10.8764 22.8492 10.8764C22.3984 10.8764 22.1344 10.5328 22.1344 10.0235C22.1344 9.0216 23.0327 8.83951 23.8836 8.83951V9.09437ZM9.65151 11.9618C9.57366 12.0316 9.46129 12.0363 9.37363 11.9893C8.9827 11.6647 8.91264 11.5147 8.69941 11.2054C8.05362 11.863 7.59669 12.0603 6.76035 12.0603C5.77034 12.0603 5 11.4491 5 10.2272C5 9.27241 5.51683 8.62323 6.25435 8.30508C6.89235 8.02483 7.78353 7.97406 8.46553 7.89757V7.74492C8.46553 7.46433 8.48787 7.13399 8.3227 6.89199C8.17953 6.67537 7.90436 6.58636 7.66269 6.58636C7.21389 6.58636 6.81484 6.81617 6.71736 7.29239C6.69706 7.39833 6.61955 7.50359 6.51293 7.50901L5.37299 7.38547C5.27652 7.36347 5.16957 7.2863 5.19732 7.13941C5.45557 5.77574 6.6737 5.35063 7.78082 5.33912H7.86814C8.43473 5.34623 9.15836 5.50158 9.59904 5.92432C10.171 6.4591 10.1159 7.1719 10.1159 7.94867V9.78078C10.1159 10.3321 10.345 10.5738 10.5599 10.8706C10.6347 10.9779 10.652 11.1048 10.5562 11.1834C10.3159 11.3848 9.88877 11.7554 9.65421 11.9645L9.65151 11.9618ZM8.46553 9.09437C8.46553 9.55265 8.4767 9.93444 8.24553 10.342C8.0587 10.6726 7.76153 10.8764 7.43118 10.8764C6.98035 10.8764 6.71635 10.5328 6.71635 10.0235C6.71635 9.0216 7.61497 8.83951 8.46553 8.83951V9.09437Z" fill="#333E47"/>
<path d="M36.862 25.8371V26.2805C36.862 26.3586 36.8958 26.4771 36.9841 26.5214C37.3341 26.668 37.9301 26.7127 38.4026 26.5891C39.3449 26.359 39.7633 25.0339 40.0774 24.2019L42.5045 17.9515C42.5451 17.8483 42.5566 17.6578 42.3525 17.6578H41.546C41.3842 17.6578 41.3148 17.762 41.2803 17.8629L39.5869 22.7862L37.813 17.8629C37.7765 17.7613 37.7101 17.6578 37.547 17.6578H36.6917C36.4863 17.6578 36.4984 17.8486 36.5397 17.9515L38.9865 24.0127C38.9059 24.2459 38.7783 24.6013 38.5858 25.042C38.449 25.3551 38.2178 25.5836 37.8956 25.6506C37.6489 25.7013 37.3013 25.6665 37.0556 25.6316C36.9239 25.6238 36.862 25.7108 36.862 25.8371Z" fill="#333E47"/>
<path fill-rule="evenodd" clip-rule="evenodd" d="M25.0134 26.4967H24.2054C24.0924 26.4967 24 26.4043 24 26.2916V17.8737C24 17.761 24.0924 17.6686 24.2054 17.6686H24.8238C24.9538 17.6686 25.0428 17.7627 25.0594 17.8737L25.1244 18.3147C25.7035 17.8006 26.4491 17.4709 27.1596 17.4709C29.1494 17.4709 29.8036 19.1104 29.8036 20.8153C29.8036 22.6393 28.8028 24.1048 27.1101 24.1048C26.3973 24.1048 25.7309 23.8418 25.2185 23.3849V26.2916C25.2185 26.4043 25.1261 26.4967 25.0134 26.4967ZM28.5307 20.7378C28.5307 19.5328 28.1661 18.4806 26.8279 18.4806C26.3154 18.4806 25.7004 18.6806 25.2185 19.0509V22.4961C25.6815 22.8383 26.3012 23.084 26.7724 23.084C27.3017 23.084 27.6534 22.9994 27.9681 22.689C28.3889 22.2744 28.5381 21.5501 28.5307 20.7378Z" fill="#333E47"/>
<path fill-rule="evenodd" clip-rule="evenodd" d="M35.721 23.7457C35.721 23.8584 35.6286 23.9508 35.5152 23.9508H34.9121C34.7818 23.9508 34.6927 23.8567 34.6762 23.7457L34.6156 23.3351C34.3384 23.5697 33.9982 23.7758 33.6293 23.9193C32.9199 24.1948 32.1021 24.2405 31.409 23.8147C30.9077 23.5071 30.6417 22.9056 30.6417 22.2852C30.6417 21.8053 30.7896 21.3294 31.1175 20.9838C31.5552 20.5117 32.1895 20.2798 32.9554 20.2798C33.4181 20.2798 34.0801 20.3343 34.5618 20.4917V19.6655C34.5618 18.8255 34.2081 18.4619 33.2756 18.4619C32.5628 18.4619 32.0175 18.5696 31.2587 18.8055C31.1372 18.8095 31.0661 18.7171 31.0661 18.6044V18.1333C31.0661 18.0202 31.1626 17.9109 31.2672 17.8778C31.809 17.6415 32.5767 17.4943 33.3927 17.4672C34.4565 17.4672 35.721 17.7072 35.721 19.3433V23.7457ZM34.5618 21.2929V22.5394C34.3583 22.7347 33.9488 22.9537 33.5125 23.0776C33.0586 23.2065 32.5757 23.2322 32.2643 23.0207C31.9962 22.8562 31.8815 22.5235 31.8815 22.1918C31.8815 21.9353 31.9607 21.6699 32.1357 21.4851C32.3699 21.2329 32.8183 21.1361 33.2279 21.1361C33.4871 21.1361 34.157 21.1822 34.5618 21.2929Z" fill="#333E47"/>
</svg>
