<svg width="42" height="16" viewBox="0 0 42 16" fill="none" xmlns="http://www.w3.org/2000/svg">
<path d="M19.9015 7.81715V12.5071H18.4033V0.924957H22.3769C22.8512 0.915118 23.3227 0.998657 23.7644 1.17075C24.206 1.34285 24.6089 1.60009 24.9499 1.92764C25.2943 2.23531 25.5685 2.61262 25.7538 3.03423C25.9392 3.45584 26.0316 3.91197 26.0247 4.37198C26.0346 4.83444 25.9436 5.29355 25.7581 5.71785C25.5726 6.14215 25.2969 6.52159 24.9499 6.83017C24.2551 7.48816 23.3974 7.81684 22.3769 7.81623H19.9015V7.81715ZM19.9015 2.3509V6.39398H22.4141C22.6895 6.40209 22.9637 6.35302 23.2189 6.2499C23.4742 6.14679 23.705 5.9919 23.8965 5.79514C24.087 5.61118 24.2385 5.39115 24.3419 5.14805C24.4453 4.90496 24.4986 4.64373 24.4986 4.37983C24.4986 4.11593 24.4453 3.85471 24.3419 3.61161C24.2385 3.36852 24.087 3.14848 23.8965 2.96452C23.7074 2.76362 23.4774 2.60494 23.2218 2.49899C22.9663 2.39304 22.6909 2.34225 22.4141 2.34997H19.9015V2.3509Z" fill="#5F6368"/>
<path d="M29.4776 4.32359C30.585 4.32359 31.4591 4.61747 32.1 5.20522C32.7408 5.79297 33.0609 6.59881 33.0603 7.62275V12.5068H31.6272V11.4071H31.5621C30.9417 12.3127 30.1166 12.7656 29.0868 12.7656C28.2077 12.7656 27.4722 12.5068 26.8804 11.9893C26.5963 11.7518 26.3693 11.4543 26.2157 11.1186C26.0621 10.7828 25.9859 10.4173 25.9926 10.0486C25.9926 9.22859 26.3046 8.57646 26.9288 8.09221C27.5529 7.60797 28.386 7.36523 29.4283 7.364C30.3179 7.364 31.0506 7.52572 31.6263 7.84917V7.50908C31.628 7.25774 31.5733 7.00916 31.4663 6.78139C31.3593 6.55362 31.2025 6.35235 31.0075 6.19219C30.6113 5.83721 30.0949 5.64352 29.5613 5.64973C28.7245 5.64973 28.0622 6.00028 27.5746 6.70139L26.255 5.87614C26.9809 4.84111 28.0551 4.32359 29.4776 4.32359ZM27.5392 10.0809C27.5382 10.2703 27.5828 10.4572 27.6692 10.6259C27.7557 10.7947 27.8815 10.9406 28.0361 11.0513C28.3675 11.3101 28.7788 11.4473 29.2003 11.4394C29.8325 11.4384 30.4385 11.1885 30.8856 10.7445C31.3819 10.2806 31.63 9.73625 31.63 9.11153C31.1629 8.74188 30.5115 8.55705 29.6758 8.55705C29.0672 8.55705 28.5597 8.70276 28.1534 8.99417C27.743 9.28989 27.5392 9.64938 27.5392 10.0809Z" fill="#5F6368"/>
<path d="M41.2862 4.58238L36.2834 16.0001H34.7368L36.5933 12.005L33.3037 4.58238H34.9322L37.3098 10.275H37.3424L39.6549 4.58238H41.2862Z" fill="#5F6368"/>
<path d="M13.848 6.80641C13.8486 6.35298 13.81 5.90035 13.7327 5.45348H7.41406V8.0161H11.0331C10.959 8.42539 10.8023 8.81555 10.5723 9.16306C10.3423 9.51057 10.0438 9.80823 9.6949 10.0381V11.7015H11.8548C13.1194 10.5436 13.848 8.83119 13.848 6.80641Z" fill="#4285F4"/>
<path d="M7.41412 13.3084C9.22223 13.3084 10.7446 12.7188 11.8548 11.7022L9.69496 10.0388C9.09381 10.4436 8.31957 10.6746 7.41412 10.6746C5.6665 10.6746 4.18317 9.50466 3.65274 7.92809H1.42773V9.64235C1.9854 10.7444 2.84051 11.6708 3.89761 12.3181C4.95471 12.9655 6.17219 13.3083 7.41412 13.3084Z" fill="#34A853"/>
<path d="M3.65232 7.92755C3.3719 7.10142 3.3719 6.20677 3.65232 5.38064V3.66637H1.42731C0.958187 4.59342 0.713867 5.61657 0.713867 6.65409C0.713867 7.69162 0.958187 8.71477 1.42731 9.64182L3.65232 7.92755Z" fill="#FBBC04"/>
<path d="M7.41412 2.63457C8.36962 2.61907 9.29289 2.97759 9.98437 3.63263L11.8967 1.73354C10.6841 0.602469 9.07763 -0.0185076 7.41412 0.000787501C6.17219 0.000843712 4.95471 0.343692 3.89761 0.991055C2.84051 1.63842 1.9854 2.56482 1.42773 3.66683L3.65274 5.3811C4.18317 3.80452 5.6665 2.63457 7.41412 2.63457Z" fill="#EA4335"/>
</svg>